<svg preserveAspectRatio="xMidYMid meet" class="svg-icon" style="width: 1em;height: 1em;vertical-align: middle;fill: currentColor;overflow: hidden;" viewBox="0 0 1024 1024" version="1.1" xmlns="http://www.w3.org/2000/svg"><path d="M910.821053 646.736842c-10.778947 0-18.863158 8.084211-18.863158 18.863158V754.526316c0 24.252632-18.863158 43.115789-43.11579 43.115789-26.947368 0-51.2-21.557895-51.2-51.2V137.431579c0-56.589474-45.810526-102.4-102.4-102.4-53.894737 0-97.010526 43.115789-97.010526 97.010526v24.252632h-13.473684c-16.168421 0-29.642105 13.473684-29.642106 29.642105v37.726316H145.515789c-26.947368 0-48.505263 21.557895-48.505263 48.505263v544.336842c0 26.947368 21.557895 48.505263 48.505263 48.505263h118.568422l5.389473 21.557895v2.694737c2.694737 10.778947 13.473684 18.863158 21.557895 18.863158h10.778947v29.642105c0 29.642105 24.252632 53.894737 53.894737 53.894737h43.11579c10.778947 0 18.863158-8.084211 18.863158-18.863158s-8.084211-18.863158-18.863158-18.863158h-43.11579c-8.084211 0-16.168421-8.084211-16.168421-16.168421v-29.642105h10.778947c10.778947 0 21.557895-8.084211 24.252632-21.557895l5.389474-21.557895h75.452631l5.389474 21.557895v2.694737c2.694737 10.778947 13.473684 18.863158 21.557895 18.863158h10.778947v29.642105c0 29.642105 24.252632 53.894737 53.894737 53.894737h43.115789c10.778947 0 18.863158-8.084211 18.863158-18.863158s-8.084211-18.863158-18.863158-18.863158h-43.115789c-8.084211 0-16.168421-8.084211-16.168421-16.168421v-29.642105h10.778947c10.778947 0 21.557895-8.084211 24.252632-21.557895l5.389474-21.557895h118.568421c26.947368 0 48.505263-21.557895 48.505263-48.505263V272.168421c0-26.947368-21.557895-48.505263-48.505263-48.505263h-8.084211V183.242105c0-16.168421-13.473684-29.642105-29.642105-29.642105h-13.473684v-21.557895c0-32.336842 26.947368-59.284211 59.28421-59.28421 35.031579 0 64.673684 29.642105 64.673684 64.673684V746.442105c0 48.505263 40.421053 88.926316 88.926316 88.926316 45.810526 0 80.842105-37.726316 80.842105-80.842105v-88.926316c-2.694737-10.778947-10.778947-18.863158-21.557894-18.863158z m-571.284211 223.663158h-35.031579v-5.389474h37.726316l-2.694737 5.389474z m191.326316 0h-35.031579v-5.389474h37.726316l-2.694737 5.389474z m167.073684-598.231579v544.336842c0 5.389474-5.389474 10.778947-10.778947 10.778948H142.821053c-5.389474 0-10.778947-5.389474-10.778948-10.778948V272.168421c0-5.389474 5.389474-10.778947 10.778948-10.778947h544.336842c5.389474-2.694737 10.778947 2.694737 10.778947 10.778947z m-56.589474-51.2H592.842105V191.326316h48.505263v29.642105z" fill="#101010" /><path d="M635.957895 291.031579c0-10.778947-8.084211-18.863158-18.863158-18.863158H215.578947c-10.778947 0-18.863158 8.084211-18.863158 18.863158 0 16.168421-13.473684 29.642105-29.642105 29.642105-10.778947 0-18.863158 8.084211-18.863158 18.863158v406.905263c0 10.778947 8.084211 18.863158 18.863158 18.863158 16.168421 0 29.642105 13.473684 29.642105 29.642105 0 10.778947 8.084211 18.863158 18.863158 18.863158h401.51579c10.778947 0 18.863158-8.084211 18.863158-18.863158 0-16.168421 13.473684-29.642105 29.642105-29.642105 10.778947 0 18.863158-8.084211 18.863158-18.863158v-404.210526c0-10.778947-8.084211-18.863158-18.863158-18.863158-16.168421 0-29.642105-13.473684-29.642105-32.336842z m10.778947 439.242105c-21.557895 5.389474-40.421053 24.252632-45.810526 45.810527H231.747368c-5.389474-21.557895-24.252632-40.421053-45.810526-45.810527V358.4c21.557895-5.389474 40.421053-24.252632 45.810526-45.810526h369.178948c5.389474 21.557895 24.252632 40.421053 45.810526 45.810526v371.873684z" fill="#101010" /><path d="M573.978947 425.768421h-107.789473c-13.473684 0-24.252632 10.778947-24.252632 24.252632v107.789473c0 13.473684 10.778947 24.252632 24.252632 24.252632h107.789473c13.473684 0 24.252632-10.778947 24.252632-24.252632v-107.789473c0-13.473684-10.778947-24.252632-24.252632-24.252632z m-13.473684 121.263158h-80.842105v-80.842105h80.842105v80.842105zM366.484211 425.768421h-107.789474c-13.473684 0-24.252632 10.778947-24.252632 24.252632v107.789473c0 13.473684 10.778947 24.252632 24.252632 24.252632h107.789474c13.473684 0 24.252632-10.778947 24.252631-24.252632v-107.789473c0-13.473684-10.778947-24.252632-24.252631-24.252632z m-13.473685 121.263158h-80.842105v-80.842105h80.842105v80.842105zM555.115789 374.568421c0-10.778947-8.084211-18.863158-18.863157-18.863158h-140.126316c-10.778947 0-18.863158 8.084211-18.863158 18.863158s8.084211 18.863158 18.863158 18.863158h140.126316c10.778947 0 18.863158-8.084211 18.863157-18.863158zM296.421053 393.431579h51.2c10.778947 0 18.863158-8.084211 18.863158-18.863158s-8.084211-18.863158-18.863158-18.863158H296.421053c-10.778947 0-18.863158 8.084211-18.863158 18.863158s8.084211 18.863158 18.863158 18.863158z" fill="#101010" /></svg>